# xmcd
#
# Track frame offsets:
#	150
#	15736
#	31360
#	46437
#	61271
#	74301
#	92198
#	110496
#	124216
#	144183
#	158975
#	176205
#	195262
#	210803
#	225362
#	242287
#	259953
#	274836
#	288115
#	305740
#
# Disc length: 4309 seconds
#
# Revision: 1
# Processed by: cddbd v1.5.2PL0 Copyright (c) Steve Scherf et al.
# Submitted via: audiograbber 1.83.01
#
DISCID=1410d314
DTITLE=George Baker Selection - 100
DYEAR=1900
DGENRE=
TTITLE0=George Baker Selection - Paloma blanca
TTITLE1=George Baker Selection - Sing a song of love
TTITLE2=George Baker Selection - Morning sky
TTITLE3=George Baker Selection - Fly away little paraquayo
TTITLE4=George Baker Selection - Beautiful rose
TTITLE5=George Baker Selection - Wild bird
TTITLE6=George Baker Selection - Little green bag
TTITLE7=George Baker Selection - Dear Ann
TTITLE8=George Baker Selection - Manana
TTITLE9=George Baker Selection - Over and over
TTITLE10=George Baker Selection - Rosita
TTITLE11=George Baker Selection - Santa Lucia by night
TTITLE12=George Baker Selection - Baby blue
TTITLE13=George Baker Selection - Marie-Jeanne
TTITLE14=George Baker Selection - Mama oh mama
TTITLE15=George Baker Selection - Sing for the day
TTITLE16=George Baker Selection - Holy day
TTITLE17=George Baker Selection - Nathalie
TTITLE18=George Baker Selection - Marja
TTITLE19=George Baker Selection - Papillon
EXTD=cd 1
EXTT0=
EXTT1=
EXTT2=
EXTT3=
EXTT4=
EXTT5=
EXTT6=
EXTT7=
EXTT8=
EXTT9=
EXTT10=
EXTT11=
EXTT12=
EXTT13=
EXTT14=
EXTT15=
EXTT16=
EXTT17=
EXTT18=
EXTT19=
PLAYORDER=
